<?xml version="1.0" encoding="UTF-8"?>
<svg xmlns="http://www.w3.org/2000/svg" xmlns:xlink="http://www.w3.org/1999/xlink" width="1280" height="720" viewBox="0 0 1280 720">
<defs>
<g>
<g id="glyph-0-0">
<path d="M 0.207031 -1.929688 C 0.207031 -2.625 0.332031 -3.152344 0.582031 -3.515625 C 0.832031 -3.878906 1.191406 -4.058594 1.664062 -4.058594 C 2.566406 -4.058594 3.015625 -3.378906 3.015625 -2.019531 C 3.015625 -1.351562 2.894531 -0.835938 2.648438 -0.472656 C 2.402344 -0.109375 2.050781 0.0703125 1.585938 0.0703125 C 0.667969 0.0703125 0.207031 -0.597656 0.207031 -1.929688 M 0.976562 -1.949219 C 0.976562 -0.996094 1.191406 -0.519531 1.617188 -0.519531 C 2.035156 -0.519531 2.242188 -1.007812 2.242188 -1.984375 C 2.242188 -2.976562 2.039062 -3.46875 1.628906 -3.46875 C 1.195312 -3.46875 0.976562 -2.960938 0.976562 -1.949219 Z "/>
</g>
<g id="glyph-0-1">
<path d="M 2.199219 -4.058594 L 2.199219 0 L 1.441406 0 L 1.441406 -3.140625 C 1.359375 -3.0625 1.238281 -2.988281 1.082031 -2.921875 C 0.925781 -2.855469 0.765625 -2.8125 0.597656 -2.792969 L 0.597656 -3.460938 C 0.996094 -3.582031 1.371094 -3.78125 1.722656 -4.058594 Z "/>
</g>
</g>
</defs>
<g fill="rgb(30.980392%, 76.862745%, 72.156863%)" fill-opacity="1">
<use xlink:href="#glyph-0-0" x="30" y="26.046875"/>
<use xlink:href="#glyph-0-1" x="33" y="26.046875"/>
</g>
</svg>
